<svg xmlns="http://www.w3.org/2000/svg" viewBox="0 0 1280 720" width="1280" height="720">
  <defs>
    <linearGradient id="titleLine" x1="0%" y1="0%" x2="100%" y2="0%">
      <stop offset="0%" stop-color="#0F2747" />
      <stop offset="100%" stop-color="#1565C0" />
    </linearGradient>
    <filter id="shadow" x="-20%" y="-20%" width="160%" height="160%">
      <feGaussianBlur in="SourceAlpha" stdDeviation="10" />
      <feOffset dx="0" dy="6" result="offsetBlur" />
      <feFlood flood-color="#5B6678" flood-opacity="0.18" result="shadowColor" />
      <feComposite in="shadowColor" in2="offsetBlur" operator="in" result="shadow" />
      <feMerge>
        <feMergeNode in="shadow" />
        <feMergeNode in="SourceGraphic" />
      </feMerge>
    </filter>
  </defs>

  <rect width="1280" height="720" fill="#F6F8FB" />
  <circle cx="1170" cy="72" r="110" fill="#1565C0" fill-opacity="0.08" />

  <g id="header">
    <path fill="#1565C0" d="M58,40 H58 A4,4 0 0 1 62,44 V72 A4,4 0 0 1 58,76 H58 A4,4 0 0 1 54,72 V44 A4,4 0 0 1 58,40 Z" />
    <text x="78" y="68" font-family="&quot;Microsoft YaHei&quot;, &quot;PingFang SC&quot;, Arial, sans-serif" font-size="34" font-weight="700" fill="#0F2747">一个能兼顾阅读体验与平台治理的私有阅读基础设施</text>
    <text x="1200" y="68" text-anchor="end" font-family="&quot;Microsoft YaHei&quot;, &quot;PingFang SC&quot;, Arial, sans-serif" font-size="14" fill="#8893A3">02</text>
    <path fill="#E9EEF5" d="M70,92 H1210 A16,16 0 0 1 1226,108 V130 A16,16 0 0 1 1210,146 H70 A16,16 0 0 1 54,130 V108 A16,16 0 0 1 70,92 Z" />
    <text x="78" y="126" font-family="&quot;Microsoft YaHei&quot;, &quot;PingFang SC&quot;, Arial, sans-serif" font-size="18" fill="#1A2433">项目不是单点阅读工具，而是一套覆盖读者端、后台端与资源入库链路的完整平台能力。</text>
  </g>

  <g id="left-panel">
    <path fill="#FFFFFF" stroke="#D6DDE8" stroke-width="1.5" filter="url(#shadow)" d="M78,178 H460 A24,24 0 0 1 484,202 V612 A24,24 0 0 1 460,636 H78 A24,24 0 0 1 54,612 V202 A24,24 0 0 1 78,178 Z" />
    <text x="88" y="244" font-family="&quot;Microsoft YaHei&quot;, &quot;PingFang SC&quot;, Arial, sans-serif" font-size="24" font-weight="700" fill="#0F2747">为什么它值得被当作平台来看待</text>
    <text x="88" y="292" font-family="Georgia, SimSun, serif" font-size="40" font-weight="700" fill="#1565C0">Private Reading Infrastructure</text>
    <text x="88" y="344" font-family="&quot;Microsoft YaHei&quot;, &quot;PingFang SC&quot;, Arial, sans-serif" font-size="20" fill="#1A2433">适合团队、机构、企业搭建私有书库、知识分发</text>
    <text x="88" y="376" font-family="&quot;Microsoft YaHei&quot;, &quot;PingFang SC&quot;, Arial, sans-serif" font-size="20" fill="#1A2433">与阅读工作台，而不是局限于单一 App 页面展示。</text>

    
  <g transform="translate(88.0, 432.0) scale(1.625)" fill="#1565C0">
    <path fill-rule="evenodd" clip-rule="evenodd" d="M8 4C5.79086 4 4 5.79086 4 8C4 10.2091 5.79086 12 8 12C10.2091 12 12 10.2091 12 8C12 5.79086 10.2091 4 8 4ZM6 8C6 6.89543 6.89543 6 8 6C9.10457 6 10 6.89543 10 8C10 9.10457 9.10457 10 8 10C6.89543 10 6 9.10457 6 8Z" />
    <path fill-rule="evenodd" clip-rule="evenodd" d="M8 0C3.58172 0 0 3.58172 0 8C0 12.4183 3.58172 16 8 16C12.4183 16 16 12.4183 16 8C16 3.58172 12.4183 0 8 0ZM2 8C2 4.68629 4.68629 2 8 2C11.3137 2 14 4.68629 14 8C14 11.3137 11.3137 14 8 14C4.68629 14 2 11.3137 2 8Z" />
  </g>
    <text x="128" y="452" font-family="&quot;Microsoft YaHei&quot;, &quot;PingFang SC&quot;, Arial, sans-serif" font-size="18" fill="#1A2433">面向长期演进：阶段一先完成可交付闭环</text>

    
  <g transform="translate(88.0, 486.0) scale(1.625)" fill="#1565C0">
    <path d="M4.35009 13.3929L8 16L11.6499 13.3929C13.7523 11.8912 15 9.46667 15 6.88306V3L8 0L1 3V6.88306C1 9.46667 2.24773 11.8912 4.35009 13.3929Z" />
  </g>
    <text x="128" y="506" font-family="&quot;Microsoft YaHei&quot;, &quot;PingFang SC&quot;, Arial, sans-serif" font-size="18" fill="#1A2433">面向治理：多角色、多入口、管理链路完整</text>

    
  <g transform="translate(88.0, 540.0) scale(1.625)" fill="#1565C0">
    <path d="M1.51967 3.30803C0.748393 4.37143 0.232465 5.63209 0.0618896 7L15.9381 7C15.7675 5.63208 15.2516 4.37142 14.4803 3.30801C14.4387 3.3313 14.3965 3.3546 14.3538 3.3779C12.8684 4.1881 10.7045 5 7.99997 5C5.29547 5 3.13149 4.1881 1.64611 3.3779C1.60342 3.35461 1.56127 3.33131 1.51967 3.30803Z" />
    <path d="M13.0562 1.80011C11.8114 2.42548 10.0975 3 7.99997 3C5.90247 3 4.18861 2.42549 2.94376 1.80013C4.32185 0.674887 6.08211 0 8 0C9.91787 0 11.6781 0.674881 13.0562 1.80011Z" />
    <path d="M0.0618896 9C0.232466 10.3679 0.748398 11.6286 1.51968 12.692C1.56128 12.6687 1.60344 12.6454 1.64614 12.6221C3.13152 11.8119 5.2955 11 8 11C10.7045 11 12.8685 11.8119 14.3538 12.6221C14.3966 12.6454 14.4387 12.6687 14.4803 12.692C15.2516 11.6286 15.7675 10.3679 15.9381 9L0.0618896 9Z" />
    <path d="M8 16C6.08212 16 4.32186 15.3251 2.94377 14.1999C4.18862 13.5745 5.90249 13 8 13C10.0975 13 11.8114 13.5745 13.0562 14.1999C11.6781 15.3251 9.91788 16 8 16Z" />
  </g>
    <text x="128" y="560" font-family="&quot;Microsoft YaHei&quot;, &quot;PingFang SC&quot;, Arial, sans-serif" font-size="18" fill="#1A2433">面向多端：Flutter 将作为统一前端基座</text>

    <path fill="#1565C0" fill-opacity="0.10" d="M103,590 H233 A15,15 0 0 1 248,605 V605 A15,15 0 0 1 233,620 H103 A15,15 0 0 1 88,605 V605 A15,15 0 0 1 103,590 Z" />
    <text x="168" y="611" text-anchor="middle" font-family="&quot;Microsoft YaHei&quot;, &quot;PingFang SC&quot;, Arial, sans-serif" font-size="14" font-weight="700" fill="#1565C0">backend + mobile 为当前主线</text>
  </g>

  <g id="matrix">
    <g id="card-1">
      <path fill="#FFFFFF" stroke="#D6DDE8" stroke-width="1.5" filter="url(#shadow)" d="M538,178 H828 A22,22 0 0 1 850,200 V370 A22,22 0 0 1 828,392 H538 A22,22 0 0 1 516,370 V200 A22,22 0 0 1 538,178 Z" />
      
  <g transform="translate(546.0, 212.0) scale(2.125)" fill="#1565C0">
    <path fill-rule="evenodd" clip-rule="evenodd" d="M8 4C5.79086 4 4 5.79086 4 8C4 10.2091 5.79086 12 8 12C10.2091 12 12 10.2091 12 8C12 5.79086 10.2091 4 8 4ZM6 8C6 6.89543 6.89543 6 8 6C9.10457 6 10 6.89543 10 8C10 9.10457 9.10457 10 8 10C6.89543 10 6 9.10457 6 8Z" />
    <path fill-rule="evenodd" clip-rule="evenodd" d="M8 0C3.58172 0 0 3.58172 0 8C0 12.4183 3.58172 16 8 16C12.4183 16 16 12.4183 16 8C16 3.58172 12.4183 0 8 0ZM2 8C2 4.68629 4.68629 2 8 2C11.3137 2 14 4.68629 14 8C14 11.3137 11.3137 14 8 14C4.68629 14 2 11.3137 2 8Z" />
  </g>
      <text x="596" y="236" font-family="&quot;Microsoft YaHei&quot;, &quot;PingFang SC&quot;, Arial, sans-serif" font-size="22" font-weight="700" fill="#0F2747">自托管平台定位</text>
      <text x="546" y="282" font-family="&quot;Microsoft YaHei&quot;, &quot;PingFang SC&quot;, Arial, sans-serif" font-size="18" fill="#1A2433">支持机构按自身数据与部署环境</text>
      <text x="546" y="310" font-family="&quot;Microsoft YaHei&quot;, &quot;PingFang SC&quot;, Arial, sans-serif" font-size="18" fill="#1A2433">掌控阅读内容、账号与服务边界。</text>
    </g>

    <g id="card-2">
      <path fill="#FFFFFF" stroke="#D6DDE8" stroke-width="1.5" filter="url(#shadow)" d="M894,178 H1184 A22,22 0 0 1 1206,200 V370 A22,22 0 0 1 1184,392 H894 A22,22 0 0 1 872,370 V200 A22,22 0 0 1 894,178 Z" />
      
  <g transform="translate(902.0, 212.0) scale(2.125)" fill="#1565C0">
    <path d="M8 3.5C8 4.88071 6.88071 6 5.5 6C4.11929 6 3 4.88071 3 3.5C3 2.11929 4.11929 1 5.5 1C6.88071 1 8 2.11929 8 3.5Z" />
    <path d="M3 8C1.34315 8 0 9.34315 0 11V15H8V8H3Z" />
    <path d="M13 8H10V15H16V11C16 9.34315 14.6569 8 13 8Z" />
    <path d="M12 6C13.1046 6 14 5.10457 14 4C14 2.89543 13.1046 2 12 2C10.8954 2 10 2.89543 10 4C10 5.10457 10.8954 6 12 6Z" />
  </g>
      <text x="952" y="236" font-family="&quot;Microsoft YaHei&quot;, &quot;PingFang SC&quot;, Arial, sans-serif" font-size="22" font-weight="700" fill="#0F2747">多用户与权限治理</text>
      <text x="902" y="282" font-family="&quot;Microsoft YaHei&quot;, &quot;PingFang SC&quot;, Arial, sans-serif" font-size="18" fill="#1A2433">普通用户、管理员、超级管理员</text>
      <text x="902" y="310" font-family="&quot;Microsoft YaHei&quot;, &quot;PingFang SC&quot;, Arial, sans-serif" font-size="18" fill="#1A2433">形成清晰权限边界和管理入口。</text>
    </g>

    <g id="card-3">
      <path fill="#FFFFFF" stroke="#D6DDE8" stroke-width="1.5" filter="url(#shadow)" d="M538,422 H828 A22,22 0 0 1 850,444 V614 A22,22 0 0 1 828,636 H538 A22,22 0 0 1 516,614 V444 A22,22 0 0 1 538,422 Z" />
      
  <g transform="translate(546.0, 456.0) scale(2.125)" fill="#1565C0">
    <path d="M8 2C10.2091 2 12 3.79086 12 6V7C14.2091 7 16 8.79086 16 11V14H9L11 12V11H9L9 8L7 8L7 11H5V12L7 14H0V10C0 7.79086 1.79086 6 4 6C4 3.79086 5.79086 2 8 2Z" />
  </g>
      <text x="596" y="480" font-family="&quot;Microsoft YaHei&quot;, &quot;PingFang SC&quot;, Arial, sans-serif" font-size="22" font-weight="700" fill="#0F2747">离线优先同步能力</text>
      <text x="546" y="526" font-family="&quot;Microsoft YaHei&quot;, &quot;PingFang SC&quot;, Arial, sans-serif" font-size="18" fill="#1A2433">批注、书签、阅读进度具备本地存储</text>
      <text x="546" y="554" font-family="&quot;Microsoft YaHei&quot;, &quot;PingFang SC&quot;, Arial, sans-serif" font-size="18" fill="#1A2433">与同步协同基础，适合移动端场景。</text>
    </g>

    <g id="card-4">
      <path fill="#FFFFFF" stroke="#D6DDE8" stroke-width="1.5" filter="url(#shadow)" d="M894,422 H1184 A22,22 0 0 1 1206,444 V614 A22,22 0 0 1 1184,636 H894 A22,22 0 0 1 872,614 V444 A22,22 0 0 1 894,422 Z" />
      
  <g transform="translate(902.0, 456.0) scale(2.125)" fill="#1565C0">
    <path d="M13 0H3V2H13V0Z" />
    <path d="M2 4H14V6H2V4Z" />
    <path d="M1 8H15V15H1V8Z" />
  </g>
      <text x="952" y="480" font-family="&quot;Microsoft YaHei&quot;, &quot;PingFang SC&quot;, Arial, sans-serif" font-size="22" font-weight="700" fill="#0F2747">可扩展的技术基座</text>
      <text x="902" y="526" font-family="&quot;Microsoft YaHei&quot;, &quot;PingFang SC&quot;, Arial, sans-serif" font-size="18" fill="#1A2433">后端插件体系与 Flutter 多端路线</text>
      <text x="902" y="554" font-family="&quot;Microsoft YaHei&quot;, &quot;PingFang SC&quot;, Arial, sans-serif" font-size="18" fill="#1A2433">让项目具备继续放大的空间。</text>
    </g>
  </g>

  <text x="54" y="687" font-family="&quot;Microsoft YaHei&quot;, &quot;PingFang SC&quot;, Arial, sans-serif" font-size="12" fill="#8893A3">Source: README.md, docs/第一阶段功能总览.md, docs/Web端停用与Flutter多端迁移计划.md</text>
</svg>