<svg xmlns="http://www.w3.org/2000/svg" viewBox="0 0 1280 720" width="1280" height="720">
  <defs>
    <filter id="shadow" x="-20%" y="-20%" width="160%" height="160%">
      <feGaussianBlur in="SourceAlpha" stdDeviation="10" />
      <feOffset dx="0" dy="6" result="offsetBlur" />
      <feFlood flood-color="#5B6678" flood-opacity="0.16" result="shadowColor" />
      <feComposite in="shadowColor" in2="offsetBlur" operator="in" result="shadow" />
      <feMerge>
        <feMergeNode in="shadow" />
        <feMergeNode in="SourceGraphic" />
      </feMerge>
    </filter>
  </defs>

  <rect width="1280" height="720" fill="#F6F8FB" />
  <path fill="#1565C0" d="M58,40 H58 A4,4 0 0 1 62,44 V72 A4,4 0 0 1 58,76 H58 A4,4 0 0 1 54,72 V44 A4,4 0 0 1 58,40 Z" />
  <text x="78" y="68" font-family="&quot;Microsoft YaHei&quot;, &quot;PingFang SC&quot;, Arial, sans-serif" font-size="34" font-weight="700" fill="#0F2747">第一阶段已经打通四条关键业务链路</text>
  <text x="1200" y="68" text-anchor="end" font-family="&quot;Microsoft YaHei&quot;, &quot;PingFang SC&quot;, Arial, sans-serif" font-size="14" fill="#8893A3">03</text>

  <path fill="#E9EEF5" d="M70,92 H1210 A16,16 0 0 1 1226,108 V130 A16,16 0 0 1 1210,146 H70 A16,16 0 0 1 54,130 V108 A16,16 0 0 1 70,92 Z" />
  <text x="78" y="126" font-family="&quot;Microsoft YaHei&quot;, &quot;PingFang SC&quot;, Arial, sans-serif" font-size="18" fill="#1A2433">账号体系、阅读闭环、离线同步、后台与扫描能力都已形成可演示、可继续演进的基线。</text>

  <g id="kpi-1">
    <path fill="#FFFFFF" stroke="#D6DDE8" stroke-width="1.5" filter="url(#shadow)" d="M76,182 H304 A22,22 0 0 1 326,204 V406 A22,22 0 0 1 304,428 H76 A22,22 0 0 1 54,406 V204 A22,22 0 0 1 76,182 Z" />
    
  <g transform="translate(82.0, 214.0) scale(2.25)" fill="#1565C0">
    <path fill-rule="evenodd" clip-rule="evenodd" d="M8 4C5.79086 4 4 5.79086 4 8C4 10.2091 5.79086 12 8 12C10.2091 12 12 10.2091 12 8C12 5.79086 10.2091 4 8 4ZM6 8C6 6.89543 6.89543 6 8 6C9.10457 6 10 6.89543 10 8C10 9.10457 9.10457 10 8 10C6.89543 10 6 9.10457 6 8Z" />
    <path fill-rule="evenodd" clip-rule="evenodd" d="M8 0C3.58172 0 0 3.58172 0 8C0 12.4183 3.58172 16 8 16C12.4183 16 16 12.4183 16 8C16 3.58172 12.4183 0 8 0ZM2 8C2 4.68629 4.68629 2 8 2C11.3137 2 14 4.68629 14 8C14 11.3137 11.3137 14 8 14C4.68629 14 2 11.3137 2 8Z" />
  </g>
    <text x="82" y="284" font-family="Georgia, SimSun, serif" font-size="40" font-weight="700" fill="#0F2747">4</text>
    <text x="82" y="320" font-family="&quot;Microsoft YaHei&quot;, &quot;PingFang SC&quot;, Arial, sans-serif" font-size="24" font-weight="700" fill="#0F2747">关键业务链路</text>
    <text x="82" y="356" font-family="&quot;Microsoft YaHei&quot;, &quot;PingFang SC&quot;, Arial, sans-serif" font-size="18" fill="#1A2433">登录恢复、阅读闭环、同步基础、</text>
    <text x="82" y="384" font-family="&quot;Microsoft YaHei&quot;, &quot;PingFang SC&quot;, Arial, sans-serif" font-size="18" fill="#1A2433">管理与扫描导入已全部串起来。</text>
  </g>

  <g id="kpi-2">
    <path fill="#FFFFFF" stroke="#D6DDE8" stroke-width="1.5" filter="url(#shadow)" d="M374,182 H602 A22,22 0 0 1 624,204 V406 A22,22 0 0 1 602,428 H374 A22,22 0 0 1 352,406 V204 A22,22 0 0 1 374,182 Z" />
    
  <g transform="translate(380.0, 214.0) scale(2.25)" fill="#1565C0">
    <path d="M8 3.5C8 4.88071 6.88071 6 5.5 6C4.11929 6 3 4.88071 3 3.5C3 2.11929 4.11929 1 5.5 1C6.88071 1 8 2.11929 8 3.5Z" />
    <path d="M3 8C1.34315 8 0 9.34315 0 11V15H8V8H3Z" />
    <path d="M13 8H10V15H16V11C16 9.34315 14.6569 8 13 8Z" />
    <path d="M12 6C13.1046 6 14 5.10457 14 4C14 2.89543 13.1046 2 12 2C10.8954 2 10 2.89543 10 4C10 5.10457 10.8954 6 12 6Z" />
  </g>
    <text x="380" y="284" font-family="Georgia, SimSun, serif" font-size="40" font-weight="700" fill="#0F2747">3</text>
    <text x="380" y="320" font-family="&quot;Microsoft YaHei&quot;, &quot;PingFang SC&quot;, Arial, sans-serif" font-size="24" font-weight="700" fill="#0F2747">系统角色体系</text>
    <text x="380" y="356" font-family="&quot;Microsoft YaHei&quot;, &quot;PingFang SC&quot;, Arial, sans-serif" font-size="18" fill="#1A2433">普通用户、管理员、超级管理员</text>
    <text x="380" y="384" font-family="&quot;Microsoft YaHei&quot;, &quot;PingFang SC&quot;, Arial, sans-serif" font-size="18" fill="#1A2433">形成清晰的权限与治理分层。</text>
  </g>

  <g id="kpi-3">
    <path fill="#FFFFFF" stroke="#D6DDE8" stroke-width="1.5" filter="url(#shadow)" d="M672,182 H900 A22,22 0 0 1 922,204 V406 A22,22 0 0 1 900,428 H672 A22,22 0 0 1 650,406 V204 A22,22 0 0 1 672,182 Z" />
    
  <g transform="translate(678.0, 214.0) scale(2.25)" fill="#1565C0">
    <path d="M0 1H5L8 3H13V5H3.7457L2.03141 11H4.11144L5.2543 7H16L14 14H0V1Z" />
  </g>
    <text x="678" y="284" font-family="Georgia, SimSun, serif" font-size="40" font-weight="700" fill="#0F2747">5</text>
    <text x="678" y="320" font-family="&quot;Microsoft YaHei&quot;, &quot;PingFang SC&quot;, Arial, sans-serif" font-size="24" font-weight="700" fill="#0F2747">后台核心分区</text>
    <text x="678" y="356" font-family="&quot;Microsoft YaHei&quot;, &quot;PingFang SC&quot;, Arial, sans-serif" font-size="18" fill="#1A2433">用户、角色、书籍、批注、资源扫描</text>
    <text x="678" y="384" font-family="&quot;Microsoft YaHei&quot;, &quot;PingFang SC&quot;, Arial, sans-serif" font-size="18" fill="#1A2433">让管理端具备实际运营价值。</text>
  </g>

  <g id="kpi-4">
    <path fill="#FFFFFF" stroke="#D6DDE8" stroke-width="1.5" filter="url(#shadow)" d="M970,182 H1198 A22,22 0 0 1 1220,204 V406 A22,22 0 0 1 1198,428 H970 A22,22 0 0 1 948,406 V204 A22,22 0 0 1 970,182 Z" />
    
  <g transform="translate(976.0, 214.0) scale(2.25)" fill="#1565C0">
    <path d="M13 0H3V2H13V0Z" />
    <path d="M2 4H14V6H2V4Z" />
    <path d="M1 8H15V15H1V8Z" />
  </g>
    <text x="976" y="284" font-family="Georgia, SimSun, serif" font-size="40" font-weight="700" fill="#0F2747">3</text>
    <text x="976" y="320" font-family="&quot;Microsoft YaHei&quot;, &quot;PingFang SC&quot;, Arial, sans-serif" font-size="24" font-weight="700" fill="#0F2747">已集成格式插件</text>
    <text x="976" y="356" font-family="&quot;Microsoft YaHei&quot;, &quot;PingFang SC&quot;, Arial, sans-serif" font-size="18" fill="#1A2433">TXT、EPUB、PDF 已纳入统一处理</text>
    <text x="976" y="384" font-family="&quot;Microsoft YaHei&quot;, &quot;PingFang SC&quot;, Arial, sans-serif" font-size="18" fill="#1A2433">并采用编译期集成方式扩展。</text>
  </g>

  <g id="summary-band">
    <path fill="#0F2747" d="M80,466 H1200 A26,26 0 0 1 1226,492 V610 A26,26 0 0 1 1200,636 H80 A26,26 0 0 1 54,610 V492 A26,26 0 0 1 80,466 Z" />
    <text x="88" y="520" font-family="&quot;Microsoft YaHei&quot;, &quot;PingFang SC&quot;, Arial, sans-serif" font-size="24" font-weight="700" fill="#FFFFFF">从能力结构上看，项目已经形成“读者端 + 管理端 + 导入端”的完整产品面。</text>

    <path fill="#1565C0" d="M108,552 H240 A20,20 0 0 1 260,572 V572 A20,20 0 0 1 240,592 H108 A20,20 0 0 1 88,572 V572 A20,20 0 0 1 108,552 Z" />
    <text x="174" y="578" text-anchor="middle" font-family="&quot;Microsoft YaHei&quot;, &quot;PingFang SC&quot;, Arial, sans-serif" font-size="17" font-weight="700" fill="#FFFFFF">读者端闭环</text>
    <path fill="#1565C0" d="M296,552 H428 A20,20 0 0 1 448,572 V572 A20,20 0 0 1 428,592 H296 A20,20 0 0 1 276,572 V572 A20,20 0 0 1 296,552 Z" />
    <text x="362" y="578" text-anchor="middle" font-family="&quot;Microsoft YaHei&quot;, &quot;PingFang SC&quot;, Arial, sans-serif" font-size="17" font-weight="700" fill="#FFFFFF">离线同步底座</text>
    <path fill="#1565C0" d="M484,552 H616 A20,20 0 0 1 636,572 V572 A20,20 0 0 1 616,592 H484 A20,20 0 0 1 464,572 V572 A20,20 0 0 1 484,552 Z" />
    <text x="550" y="578" text-anchor="middle" font-family="&quot;Microsoft YaHei&quot;, &quot;PingFang SC&quot;, Arial, sans-serif" font-size="17" font-weight="700" fill="#FFFFFF">后台治理能力</text>
    <path fill="#2FA39A" d="M672,552 H804 A20,20 0 0 1 824,572 V572 A20,20 0 0 1 804,592 H672 A20,20 0 0 1 652,572 V572 A20,20 0 0 1 672,552 Z" />
    <text x="738" y="578" text-anchor="middle" font-family="&quot;Microsoft YaHei&quot;, &quot;PingFang SC&quot;, Arial, sans-serif" font-size="17" font-weight="700" fill="#FFFFFF">资源扫描入库</text>

    <text x="1040" y="580" text-anchor="end" font-family="&quot;Microsoft YaHei&quot;, &quot;PingFang SC&quot;, Arial, sans-serif" font-size="16" fill="#DCE7F5">阶段一目标：先跑通，再稳定，再扩展</text>
  </g>

  <text x="54" y="687" font-family="&quot;Microsoft YaHei&quot;, &quot;PingFang SC&quot;, Arial, sans-serif" font-size="12" fill="#8893A3">Source: docs/第一阶段功能总览.md, docs/第一阶段详细功能文档.md, docs/后端架构文档.md</text>
</svg>