<svg xmlns="http://www.w3.org/2000/svg" viewBox="0 0 1280 720" width="1280" height="720">
  <defs>
    <filter id="shadow" x="-20%" y="-20%" width="160%" height="160%">
      <feGaussianBlur in="SourceAlpha" stdDeviation="10" />
      <feOffset dx="0" dy="6" result="offsetBlur" />
      <feFlood flood-color="#5B6678" flood-opacity="0.16" result="shadowColor" />
      <feComposite in="shadowColor" in2="offsetBlur" operator="in" result="shadow" />
      <feMerge>
        <feMergeNode in="shadow" />
        <feMergeNode in="SourceGraphic" />
      </feMerge>
    </filter>
    <marker id="arrowBlue" markerWidth="10" markerHeight="10" refX="9" refY="5" orient="auto">
      <path d="M0,0 L10,5 L0,10 Z" fill="#1565C0" />
    </marker>
  </defs>

  <rect width="1280" height="720" fill="#F6F8FB" />
  <path fill="#1565C0" d="M58,40 H58 A4,4 0 0 1 62,44 V72 A4,4 0 0 1 58,76 H58 A4,4 0 0 1 54,72 V44 A4,4 0 0 1 58,40 Z" />
  <text x="78" y="68" font-family="&quot;Microsoft YaHei&quot;, &quot;PingFang SC&quot;, Arial, sans-serif" font-size="34" font-weight="700" fill="#0F2747">架构以可扩展与可交付为目标，兼顾当前落地与未来演进</text>
  <text x="1200" y="68" text-anchor="end" font-family="&quot;Microsoft YaHei&quot;, &quot;PingFang SC&quot;, Arial, sans-serif" font-size="14" fill="#8893A3">06</text>

  <path fill="#E9EEF5" d="M70,92 H1210 A16,16 0 0 1 1226,108 V130 A16,16 0 0 1 1210,146 H70 A16,16 0 0 1 54,130 V108 A16,16 0 0 1 70,92 Z" />
  <text x="78" y="126" font-family="&quot;Microsoft YaHei&quot;, &quot;PingFang SC&quot;, Arial, sans-serif" font-size="18" fill="#1A2433">后端、格式插件、Flutter 多端基座之间已经形成清晰边界，为 Native Image 和多端扩展预留了空间。</text>

  <g id="architecture-stack">
    <path fill="#FFFFFF" stroke="#D6DDE8" stroke-width="1.5" filter="url(#shadow)" d="M82,178 H592 A28,28 0 0 1 620,206 V624 A28,28 0 0 1 592,652 H82 A28,28 0 0 1 54,624 V206 A28,28 0 0 1 82,178 Z" />
    <text x="84" y="224" font-family="&quot;Microsoft YaHei&quot;, &quot;PingFang SC&quot;, Arial, sans-serif" font-size="24" font-weight="700" fill="#0F2747">三层架构示意</text>

    <g id="layer-1">
      <path fill="#1565C0" d="M106,254 H568 A22,22 0 0 1 590,276 V328 A22,22 0 0 1 568,350 H106 A22,22 0 0 1 84,328 V276 A22,22 0 0 1 106,254 Z" />
      
  <g transform="translate(108.0, 286.0) scale(2.0)" fill="#FFFFFF">
    <path fill-rule="evenodd" clip-rule="evenodd" d="M4 0C2.89543 0 2 0.895431 2 2V14C2 15.1046 2.89543 16 4 16H12C13.1046 16 14 15.1046 14 14V2C14 0.895431 13.1046 0 12 0H4ZM12 3H4V13H12V3Z" />
  </g>
      <text x="156" y="308" font-family="&quot;Microsoft YaHei&quot;, &quot;PingFang SC&quot;, Arial, sans-serif" font-size="24" font-weight="700" fill="#FFFFFF">Flutter Frontend Layer</text>
      <text x="156" y="334" font-family="&quot;Microsoft YaHei&quot;, &quot;PingFang SC&quot;, Arial, sans-serif" font-size="17" fill="#FFFFFF">app / data / features / shared，当前覆盖手机和平板，后续向 Web/Desktop 延展</text>
    </g>
    <line x1="337" y1="350" x2="337" y2="390" stroke="#1565C0" stroke-width="3" marker-end="url(#arrowBlue)" />

    <g id="layer-2">
      <path fill="#0F2747" d="M106,398 H568 A22,22 0 0 1 590,420 V486 A22,22 0 0 1 568,508 H106 A22,22 0 0 1 84,486 V420 A22,22 0 0 1 106,398 Z" />
      
  <g transform="translate(108.0, 436.0) scale(2.0)" fill="#FFFFFF">
    <path fill-rule="evenodd" clip-rule="evenodd" d="M16 2H0V7H16V2ZM4 4.5C4 5.05228 3.55228 5.5 3 5.5C2.44772 5.5 2 5.05228 2 4.5C2 3.94772 2.44772 3.5 3 3.5C3.55228 3.5 4 3.94772 4 4.5Z" />
    <path fill-rule="evenodd" clip-rule="evenodd" d="M16 9H0V14H16V9ZM3 12.5C3.55228 12.5 4 12.0523 4 11.5C4 10.9477 3.55228 10.5 3 10.5C2.44772 10.5 2 10.9477 2 11.5C2 12.0523 2.44772 12.5 3 12.5Z" />
  </g>
      <text x="156" y="458" font-family="&quot;Microsoft YaHei&quot;, &quot;PingFang SC&quot;, Arial, sans-serif" font-size="24" font-weight="700" fill="#FFFFFF">Backend Service Layer</text>
      <text x="156" y="486" font-family="&quot;Microsoft YaHei&quot;, &quot;PingFang SC&quot;, Arial, sans-serif" font-size="17" fill="#DCE7F5">Kotlin + Spring Boot 3，承载认证鉴权、图书服务、同步、管理后台与扫描流程</text>
    </g>
    <line x1="337" y1="508" x2="337" y2="548" stroke="#1565C0" stroke-width="3" marker-end="url(#arrowBlue)" />

    <g id="layer-3">
      <path fill="#E9EEF5" d="M104,556 H570 A20,20 0 0 1 590,576 V600 A20,20 0 0 1 570,620 H104 A20,20 0 0 1 84,600 V576 A20,20 0 0 1 104,556 Z" />
      
  <g transform="translate(108.0, 574.0) scale(1.75)" fill="#1565C0">
    <path d="M13 0H3V2H13V0Z" />
    <path d="M2 4H14V6H2V4Z" />
    <path d="M1 8H15V15H1V8Z" />
  </g>
      <text x="148" y="588" font-family="&quot;Microsoft YaHei&quot;, &quot;PingFang SC&quot;, Arial, sans-serif" font-size="18" font-weight="700" fill="#0F2747">Plugin + Infra Layer: plugin-api / plugin-epub / plugin-pdf / plugin-txt</text>
      <text x="148" y="612" font-family="&quot;Microsoft YaHei&quot;, &quot;PingFang SC&quot;, Arial, sans-serif" font-size="16" fill="#5B6678">PostgreSQL / Redis / RabbitMQ</text>
    </g>
  </g>

  <g id="architecture-points">
    <g id="point-1">
      <path fill="#FFFFFF" stroke="#D6DDE8" stroke-width="1.5" filter="url(#shadow)" d="M688,178 H908 A24,24 0 0 1 932,202 V372 A24,24 0 0 1 908,396 H688 A24,24 0 0 1 664,372 V202 A24,24 0 0 1 688,178 Z" />
      
  <g transform="translate(694.0, 210.0) scale(2.125)" fill="#1565C0">
    <path d="M4.35009 13.3929L8 16L11.6499 13.3929C13.7523 11.8912 15 9.46667 15 6.88306V3L8 0L1 3V6.88306C1 9.46667 2.24773 11.8912 4.35009 13.3929Z" />
  </g>
      <text x="744" y="236" font-family="&quot;Microsoft YaHei&quot;, &quot;PingFang SC&quot;, Arial, sans-serif" font-size="22" font-weight="700" fill="#0F2747">Native-ready</text>
      <text x="694" y="282" font-family="&quot;Microsoft YaHei&quot;, &quot;PingFang SC&quot;, Arial, sans-serif" font-size="18" fill="#1A2433">遵循 AOT 友好约束，避免运行时</text>
      <text x="694" y="310" font-family="&quot;Microsoft YaHei&quot;, &quot;PingFang SC&quot;, Arial, sans-serif" font-size="18" fill="#1A2433">动态插件发现与高反射依赖。</text>
    </g>

    <g id="point-2">
      <path fill="#FFFFFF" stroke="#D6DDE8" stroke-width="1.5" filter="url(#shadow)" d="M982,178 H1202 A24,24 0 0 1 1226,202 V372 A24,24 0 0 1 1202,396 H982 A24,24 0 0 1 958,372 V202 A24,24 0 0 1 982,178 Z" />
      
  <g transform="translate(988.0, 210.0) scale(2.125)" fill="#1565C0">
    <path fill-rule="evenodd" clip-rule="evenodd" d="M16 2H0V7H16V2ZM4 4.5C4 5.05228 3.55228 5.5 3 5.5C2.44772 5.5 2 5.05228 2 4.5C2 3.94772 2.44772 3.5 3 3.5C3.55228 3.5 4 3.94772 4 4.5Z" />
    <path fill-rule="evenodd" clip-rule="evenodd" d="M16 9H0V14H16V9ZM3 12.5C3.55228 12.5 4 12.0523 4 11.5C4 10.9477 3.55228 10.5 3 10.5C2.44772 10.5 2 10.9477 2 11.5C2 12.0523 2.44772 12.5 3 12.5Z" />
  </g>
      <text x="1038" y="236" font-family="&quot;Microsoft YaHei&quot;, &quot;PingFang SC&quot;, Arial, sans-serif" font-size="22" font-weight="700" fill="#0F2747">模块边界清晰</text>
      <text x="988" y="282" font-family="&quot;Microsoft YaHei&quot;, &quot;PingFang SC&quot;, Arial, sans-serif" font-size="18" fill="#1A2433">控制器、服务、SQL 存取和插件层</text>
      <text x="988" y="310" font-family="&quot;Microsoft YaHei&quot;, &quot;PingFang SC&quot;, Arial, sans-serif" font-size="18" fill="#1A2433">职责明确，便于后续演进。</text>
    </g>

    <g id="point-3">
      <path fill="#FFFFFF" stroke="#D6DDE8" stroke-width="1.5" filter="url(#shadow)" d="M688,432 H908 A24,24 0 0 1 932,456 V628 A24,24 0 0 1 908,652 H688 A24,24 0 0 1 664,628 V456 A24,24 0 0 1 688,432 Z" />
      
  <g transform="translate(694.0, 464.0) scale(2.125)" fill="#1565C0">
    <path fill-rule="evenodd" clip-rule="evenodd" d="M4 0C2.89543 0 2 0.895431 2 2V14C2 15.1046 2.89543 16 4 16H12C13.1046 16 14 15.1046 14 14V2C14 0.895431 13.1046 0 12 0H4ZM12 3H4V13H12V3Z" />
  </g>
      <text x="744" y="490" font-family="&quot;Microsoft YaHei&quot;, &quot;PingFang SC&quot;, Arial, sans-serif" font-size="22" font-weight="700" fill="#0F2747">统一前端路线</text>
      <text x="694" y="536" font-family="&quot;Microsoft YaHei&quot;, &quot;PingFang SC&quot;, Arial, sans-serif" font-size="18" fill="#1A2433">Flutter 既是当前主端工程，也是</text>
      <text x="694" y="564" font-family="&quot;Microsoft YaHei&quot;, &quot;PingFang SC&quot;, Arial, sans-serif" font-size="18" fill="#1A2433">后续 Web/Desktop 收敛的基座。</text>
    </g>

    <g id="point-4">
      <path fill="#FFFFFF" stroke="#D6DDE8" stroke-width="1.5" filter="url(#shadow)" d="M982,432 H1202 A24,24 0 0 1 1226,456 V628 A24,24 0 0 1 1202,652 H982 A24,24 0 0 1 958,628 V456 A24,24 0 0 1 982,432 Z" />
      
  <g transform="translate(988.0, 464.0) scale(2.125)" fill="#1565C0">
    <path fill-rule="evenodd" clip-rule="evenodd" d="M5 11.5V14.5L6.5 16H9.5L11 14.5V11.5L12.2396 10.2604C13.3668 9.13324 14 7.60141 14 6.00736C14 2.69365 11.3137 0 8 0C4.68629 0 2 2.69365 2 6.00736C2 7.60141 2.63324 9.13324 3.76041 10.2604L5 11.5ZM7 9.87398V6H9V9.87398C10.7252 9.42994 12 7.86384 12 6C12 3.79086 10.2091 2 8 2C5.79086 2 4 3.79086 4 6C4 7.86384 5.27477 9.42994 7 9.87398Z" />
  </g>
      <text x="1038" y="490" font-family="&quot;Microsoft YaHei&quot;, &quot;PingFang SC&quot;, Arial, sans-serif" font-size="22" font-weight="700" fill="#0F2747">为长期平台化留白</text>
      <text x="988" y="536" font-family="&quot;Microsoft YaHei&quot;, &quot;PingFang SC&quot;, Arial, sans-serif" font-size="18" fill="#1A2433">当前先交付核心路径，未来再扩展</text>
      <text x="988" y="564" font-family="&quot;Microsoft YaHei&quot;, &quot;PingFang SC&quot;, Arial, sans-serif" font-size="18" fill="#1A2433">跨端适配、统计审计与工作流能力。</text>
    </g>
  </g>

  <text x="54" y="687" font-family="&quot;Microsoft YaHei&quot;, &quot;PingFang SC&quot;, Arial, sans-serif" font-size="12" fill="#8893A3">Source: docs/后端架构文档.md, docs/Flutter应用架构文档.md, README.md</text>
</svg>